<svg width="16" height="16" viewBox="0 0 16 16" fill="none" xmlns="http://www.w3.org/2000/svg">
<path d="M14.805 3.35268C14.2075 2.35684 13.1452 1.69293 11.9502 1.69293H3.98341C2.78837 1.69293 1.72616 2.35684 1.12863 3.35268C0.398344 4.68049 0 6.14109 0 7.66806C0 11.3195 1.46059 14.3071 3.3195 14.3071C4.31534 14.3071 5.11203 13.3776 5.70953 11.4523C5.77591 11.1867 6.04147 10.9876 6.37344 10.9876H9.62656C9.89212 10.9876 10.1577 11.1867 10.2905 11.4523C10.888 13.3776 11.6847 14.3071 12.6805 14.3071C14.5394 14.3071 16 11.3195 16 7.66806C15.9336 6.14109 15.5353 4.68049 14.805 3.35268ZM12.6141 12.9792C12.4149 12.9792 11.9502 12.4481 11.4855 11.0539C11.2199 10.1909 10.4232 9.65974 9.56016 9.65974H6.37344C5.51038 9.65974 4.71369 10.2572 4.44812 11.0539C3.98341 12.4481 3.51866 12.9792 3.3195 12.9792C2.65559 12.9792 1.32781 10.9212 1.32781 7.66806C1.32781 6.40665 1.65975 5.14524 2.25728 4.01662C2.65563 3.41912 3.31953 3.02078 3.98344 3.02078H11.9502C12.6142 3.02078 13.2781 3.41912 13.6764 4.01662C14.2739 5.14524 14.6059 6.40665 14.6059 7.66806C14.6058 10.9212 13.278 12.9792 12.6141 12.9792Z" fill="#1F4173"/>
<path d="M6.00027 6.00006H5.33362V5.3334C5.33362 4.9334 5.06696 4.66675 4.66696 4.66675C4.26696 4.66675 4.0003 4.9334 4.0003 5.3334V6.00006H3.33365C2.93365 6.00006 2.66699 6.26672 2.66699 6.66672C2.66699 7.06672 2.93365 7.33337 3.33365 7.33337H4.00027V8.00006C4.00027 8.40006 4.26693 8.66672 4.66693 8.66672C5.06693 8.66672 5.33359 8.40006 5.33359 8.00006V7.3334H6.00027C6.40027 7.3334 6.66693 7.06675 6.66693 6.66675C6.66693 6.26672 6.40027 6.00006 6.00027 6.00006Z" fill="#1F4173"/>
<path d="M12.333 6.66675C12.8853 6.66675 13.333 6.21903 13.333 5.66675C13.333 5.11446 12.8853 4.66675 12.333 4.66675C11.7807 4.66675 11.333 5.11446 11.333 5.66675C11.333 6.21903 11.7807 6.66675 12.333 6.66675Z" fill="#1F4173"/>
<path d="M10.333 8.66675C10.8853 8.66675 11.333 8.21903 11.333 7.66675C11.333 7.11446 10.8853 6.66675 10.333 6.66675C9.78072 6.66675 9.33301 7.11446 9.33301 7.66675C9.33301 8.21903 9.78072 8.66675 10.333 8.66675Z" fill="#1F4173"/>
</svg>
